<svg width="1100" height="432" viewBox="0 0 1100 432" fill="none" xmlns="http://www.w3.org/2000/svg">
<path fill-rule="evenodd" clip-rule="evenodd" d="M1443.94 467.355C1419.71 465.612 1395.35 462.614 1369.62 456.625C1354.38 453.079 1334.45 453.784 1324.2 466.401C1319.96 471.615 1318.22 478.087 1316.38 484.939C1315.44 488.422 1314.47 492.024 1313.15 495.417C1305.37 515.339 1284.35 529.985 1256.93 534.598C1241.34 537.219 1225.29 536.736 1209.76 536.273C1202.03 536.044 1194.05 535.807 1186.23 535.951C1156.43 536.512 1126.66 542.717 1097.87 548.716C1077.18 553.027 1055.79 557.486 1034.46 559.846C1005.02 563.103 932.283 565.334 892.824 515.861C887.004 508.571 882.114 500.331 877.384 492.362C869.354 478.846 861.055 464.869 848.225 455.773C833.145 445.078 813.576 442.291 794.644 439.596C772.009 436.372 748.602 433.039 733.656 415.878C727.718 409.061 723.884 400.735 720.176 392.683C717.057 385.909 713.831 378.904 709.381 372.894C698.754 358.535 681.617 349.556 665.044 340.873C654.669 335.437 643.939 329.816 634.922 322.928C625.77 315.938 618.774 306.578 612.009 297.527C607.151 291.027 602.126 284.305 596.354 278.534C584.752 266.933 569.939 258.934 555.614 251.199C546.656 246.363 537.394 241.36 528.918 235.497C506.858 220.239 487.724 192.153 497.842 166.544C499.009 163.594 500.543 160.766 502.028 158.029C504.391 153.675 506.624 149.561 507.55 144.935C510.317 131.108 501.071 119.974 491.282 108.185C484.302 99.7769 477.082 91.0829 474.049 80.9991C465.319 51.9825 493.574 25.1597 523.521 12.5172C553.483 -0.131287 586.956 -6.77252 620.334 -6.68655C653.709 -6.60056 687.151 0.211639 717.046 13.0141C722.771 15.4648 728.521 18.1845 734.082 20.8132C749.431 28.0714 765.306 35.5765 782.198 38.1622C795.845 40.2529 810.016 39.0941 823.716 37.9732C839.455 36.6863 855.725 35.3565 871.354 38.9151C889.394 43.0226 905.254 53.3054 920.593 63.2482C925.193 66.2309 929.943 69.3145 934.673 72.1732C997.411 110.096 1076.41 118.969 1146 95.9023C1157.44 92.1108 1171.69 82.9299 1175.94 71.7332C1177.82 66.7768 1177.47 61.9993 1174.88 57.5349C1169.66 48.5249 1157.33 46.6872 1147.42 48.8609C1141.94 50.0638 1136.61 52.2525 1131.45 54.3693C1126.86 56.252 1122.12 58.1978 1117.23 59.4826C1112.01 60.8505 1106.78 61.4694 1101.56 61.4694C1078.56 61.4714 1055.62 49.4878 1033.83 36.8493L958.452 -6.86252C945.393 -14.4386 929.133 -23.8675 920.653 -38.9377C915.783 -47.5857 914.473 -58.7664 917.233 -68.1173C919.363 -75.3564 923.653 -80.8488 929.633 -83.9994C935.283 -86.975 941.713 -87.552 947.923 -88.1079C950.453 -88.3339 953.062 -88.5688 955.572 -88.9608C971.782 -91.5085 986.882 -101.958 994.981 -116.234C996.401 -118.724 997.661 -121.403 998.881 -123.993C1001.57 -129.703 1004.35 -135.607 1008.99 -140.095C1016.26 -147.126 1026.79 -149.454 1037.09 -150.92C1039.35 -151.242 1041.64 -151.559 1043.96 -151.878C1075.29 -156.2 1110.8 -161.099 1124.11 -188.606C1129.06 -198.825 1129.74 -210.553 1130.4 -221.895C1130.77 -228.282 1131.15 -234.887 1132.28 -241.243C1136.68 -265.998 1153.05 -287.43 1175 -297.175C1197.92 -307.345 1225.65 -303.68 1244.02 -288.056C1259.1 -275.235 1266.71 -256.415 1274.09 -238.215C1277.22 -230.476 1280.46 -222.474 1284.23 -215.052C1299 -185.966 1324.7 -161.994 1354.74 -149.282C1370.99 -142.402 1389.3 -138.142 1407.01 -134.02C1419.43 -131.131 1432 -128.207 1443.93 -124.335C1443.93 -124.335 1443.82 -122.165 1443.94 -122.289C1432.12 -126.125 1419.46 -129.07 1406.56 -132.073C1388.77 -136.213 1370.37 -140.494 1353.96 -147.441C1323.49 -160.334 1297.42 -184.647 1282.45 -214.147C1278.64 -221.645 1275.38 -229.687 1272.23 -237.464C1264.95 -255.441 1257.43 -274.03 1242.73 -286.532C1224.93 -301.67 1198.04 -305.214 1175.81 -295.347C1154.46 -285.869 1138.53 -265.003 1134.25 -240.893C1133.14 -234.654 1132.76 -228.108 1132.39 -221.78C1131.72 -210.241 1131.03 -198.311 1125.91 -187.735C1112.13 -159.264 1076.06 -154.288 1044.23 -149.898C1041.92 -149.578 1039.63 -149.263 1037.37 -148.941C1027.41 -147.522 1017.24 -145.293 1010.38 -138.658C1006 -134.423 1003.42 -128.943 1000.69 -123.141C999.451 -120.517 998.171 -117.803 996.721 -115.248C988.332 -100.454 972.682 -89.6247 955.882 -86.986C953.312 -86.5821 950.663 -86.3451 948.103 -86.1161C941.803 -85.5522 935.853 -85.0193 930.563 -82.2306C925.073 -79.3379 921.123 -74.2615 919.153 -67.5523C916.543 -58.7014 917.783 -48.1126 922.393 -39.9176C930.603 -25.3243 946.603 -16.0464 959.462 -8.59229L1034.83 35.1195C1061.21 50.4177 1089.27 64.751 1116.72 57.5489C1121.49 56.298 1126.17 54.3763 1130.69 52.5195C1135.93 50.3707 1141.34 48.149 1146.99 46.9081C1157.61 44.5784 1170.89 46.6492 1176.61 56.532C1179.51 61.5434 1179.92 66.8968 1177.81 72.4431C1173.33 84.2507 1158.51 93.8646 1146.63 97.8001C1076.49 121.048 996.871 112.107 933.643 73.8839C928.883 71.0103 924.113 67.9177 919.503 64.927C904.314 55.0772 888.604 44.8934 870.914 40.8658C855.585 37.3743 839.465 38.6911 823.886 39.967C810.066 41.0958 795.773 42.2647 781.895 40.1399C764.714 37.5092 748.707 29.9401 733.227 22.621C727.682 19.9993 721.951 17.1466 716.259 14.7089C686.608 2.01245 653.436 -4.97171 620.328 -4.97171C620.118 -4.97171 619.907 -4.97171 619.697 -4.97171C586.799 -4.97171 553.826 1.75146 524.3 14.217C495.15 26.5235 467.59 52.5165 475.964 80.3512C478.88 90.047 485.968 98.617 492.821 106.872C502.924 119.038 512.466 130.547 509.51 145.31C508.525 150.232 506.116 154.68 503.786 158.975C502.329 161.658 500.823 164.437 499.702 167.275C489.985 191.869 508.624 219.027 530.055 233.85C538.441 239.65 547.654 244.628 556.564 249.438C571.016 257.242 585.959 265.311 597.768 277.119C603.642 282.991 608.711 289.772 613.611 296.33C620.294 305.272 627.206 314.518 636.135 321.338C645.017 328.123 655.671 333.704 665.972 339.103C682.745 347.89 700.087 356.977 710.989 371.704C715.561 377.879 718.831 384.98 721.994 391.847C725.642 399.77 729.416 407.964 735.164 414.565C749.622 431.164 771.628 434.297 794.926 437.615C814.096 440.346 833.905 443.167 849.385 454.142C862.555 463.484 870.964 477.646 879.104 491.341C883.794 499.252 888.654 507.433 894.384 514.614C933.223 563.31 1005.13 561.078 1034.24 557.857C1055.47 555.509 1076.82 551.06 1097.46 546.758C1126.34 540.739 1156.2 534.517 1186.19 533.952C1194.06 533.803 1202.07 534.044 1209.82 534.275C1225.25 534.737 1241.21 535.213 1256.6 532.625C1283.32 528.131 1303.77 513.949 1311.29 494.691C1312.57 491.399 1313.53 487.85 1314.45 484.419C1316.26 477.667 1318.14 470.685 1322.65 465.139C1336.28 448.364 1362.39 452.89 1370.07 454.678C1395.62 460.625 1419.84 463.61 1443.94 465.35V467.355Z" fill="#3C3E4A"/>
<path fill-rule="evenodd" clip-rule="evenodd" d="M695.46 765.94C693.994 761.24 692.987 756.391 692.5 751.451C690.447 730.674 696.792 709.956 702.928 689.929L703.538 687.939C714.137 653.277 724.114 613.422 708.202 579.048C701.765 565.147 691.5 553.437 681.573 542.113C675.142 534.78 668.496 527.197 662.953 519.092C648.634 498.157 643.106 468.152 660.245 451.305C678.873 432.992 714.544 439.994 738.262 457.344C741.837 459.959 745.262 462.936 748.575 465.814C753.502 470.096 758.597 474.524 764.346 477.914C770.094 481.305 776.451 483.63 782.597 485.88C789.095 488.257 795.814 490.715 801.706 494.417C813.626 501.905 821.316 513.507 829.456 525.789C834.866 533.967 840.475 542.423 847.415 549.448C857.115 559.278 869.395 566.135 878.994 571.01C908.364 585.916 938.233 595.351 963.102 597.581C984.812 599.526 1006.67 596.481 1027.81 593.535C1051.5 590.231 1076.01 586.815 1099.75 581.443C1106.43 579.931 1113.19 578.232 1119.72 576.591C1133.97 573.011 1148.71 569.308 1163.48 567.333C1180.11 565.11 1197.22 565.015 1213.76 564.923C1220.18 564.888 1226.82 564.85 1233.35 564.69C1277.82 563.596 1322.03 556.705 1364.72 544.212C1368.33 543.156 1371.93 542.06 1375.54 540.963C1393 535.651 1411.06 530.159 1429.43 529.562C1434.26 529.405 1438.94 529.584 1443.94 530.022V528.013C1438.94 527.58 1434.22 527.404 1429.36 527.562C1410.73 528.169 1392.54 533.7 1374.96 539.051C1371.36 540.144 1367.76 541.239 1364.16 542.292C1321.63 554.738 1277.6 561.601 1233.3 562.69C1226.79 562.85 1220.16 562.888 1213.75 562.923C1197.14 563.016 1179.97 563.11 1163.22 565.351C1148.33 567.341 1133.54 571.057 1119.24 574.651C1112.71 576.29 1105.97 577.985 1099.31 579.492C1075.65 584.846 1051.19 588.257 1027.53 591.554C1006.51 594.486 984.772 597.519 963.272 595.589C938.653 593.383 909.044 584.02 879.894 569.226C870.425 564.42 858.335 557.668 848.835 548.043C842.035 541.156 836.485 532.782 831.116 524.684C823.226 512.767 815.056 500.441 802.77 492.724C796.699 488.91 789.879 486.415 783.284 484.001C777.222 481.783 770.954 479.49 765.362 476.192C759.772 472.894 754.746 468.527 749.886 464.303C746.544 461.399 743.086 458.395 739.443 455.73C715.048 437.889 678.232 430.82 658.842 449.879C640.921 467.495 646.513 498.6 661.301 520.221C666.913 528.425 673.6 536.054 680.068 543.432C689.903 554.649 700.071 566.248 706.386 579.888C722.003 613.622 712.116 653.046 701.626 687.349L701.016 689.339C694.822 709.566 688.418 730.474 690.509 751.651C690.99 756.521 691.961 761.3 693.37 765.93L695.46 765.94Z" fill="#3C3E4A"/>
<path fill-rule="evenodd" clip-rule="evenodd" d="M1443.94 441.824C1412.34 439.298 1380.9 433.582 1350.07 424.735C1306.67 412.282 1265.54 393.933 1227.84 370.197C1219.42 364.898 1210.98 359.222 1202.83 353.732C1177.12 336.438 1150.55 318.554 1120.6 309.851C1082.95 298.917 1032.29 307.018 1012.55 343.583C1004.27 358.912 983.142 361.915 966.532 356.954C957.712 354.319 949.442 349.994 941.443 345.811C934.703 342.287 927.733 338.641 920.513 336.055C912.903 333.334 904.763 331.687 896.884 330.094C885.414 327.777 873.544 325.379 863.114 319.621C852.105 313.546 843.405 304.14 834.995 295.044C832.735 292.602 830.395 290.077 828.065 287.666C787.729 246.024 729.058 222.182 671.099 223.875C662.186 224.136 653.073 224.974 644.259 225.786C624.465 227.604 604.001 229.489 584.351 224.981C566.638 220.918 550.081 209.365 541.142 194.829C534.73 184.403 532.737 173.25 535.378 162.576C537.969 152.104 533.595 142.007 528.963 131.317C524.685 121.439 520.259 111.224 521.846 100.661C523.466 89.8797 531.189 81.0867 537.737 74.6305C586.086 26.9661 663.923 11.1799 727.024 36.245C734.193 39.0927 741.312 42.4683 748.198 45.7339C762.623 52.5731 777.537 59.6462 793.429 62.0569C801.401 63.2668 809.666 63.2988 817.655 63.3308C826.705 63.3668 836.065 63.4038 845.125 65.1396C863.134 68.5872 879.014 78.461 894.364 88.0099C902.603 93.1313 911.123 98.4276 919.873 102.676C929.653 107.426 940.863 115.099 952.732 123.222C973.362 137.343 996.751 153.348 1015.82 155.301C1034.6 157.225 1052.31 153.366 1071.07 149.049C1086.54 145.49 1102.53 142.012 1119.2 142.012C1119.3 142.012 1119.4 142.012 1119.5 142.012C1139.55 142.012 1158.22 144.052 1176.28 146.24C1217.34 151.214 1256.11 155.798 1303.33 132.908C1335.55 117.287 1374.74 141.771 1405.28 164.891L1404.07 166.458C1373.99 143.682 1335.44 119.463 1304.2 134.61C1256.45 157.759 1217.39 153.022 1176.04 148.012C1157.95 145.82 1139.23 143.576 1119.21 143.573C1102.76 143.591 1086.88 147.245 1071.52 150.779C1053.43 154.943 1034.72 159.248 1015.62 157.292C996.041 155.286 972.432 139.128 951.602 124.873C939.803 116.792 928.643 109.159 919.003 104.475C910.153 100.181 901.594 94.8571 893.314 89.7077C878.114 80.2558 862.394 70.4819 844.755 67.1033C835.865 65.4035 826.605 65.3666 817.645 65.3306C809.586 65.2986 801.247 65.2656 793.128 64.0347C776.946 61.579 761.896 54.4418 747.34 47.5407C740.483 44.289 733.394 40.9274 726.286 38.1028C663.899 13.3227 586.942 28.9278 539.142 76.0543C532.814 82.2925 525.356 90.7606 523.824 100.958C522.322 110.955 526.632 120.903 530.799 130.522C535.358 141.047 540.073 151.928 537.32 163.056C534.81 173.198 536.721 183.823 542.846 193.782C551.514 207.876 567.59 219.084 584.798 223.032C604.136 227.469 624.438 225.601 644.076 223.794C652.92 222.979 662.065 222.138 671.041 221.875C729.541 220.178 788.782 244.236 829.505 286.275C831.855 288.702 834.195 291.236 836.465 293.687C844.765 302.667 853.355 311.951 864.074 317.87C874.244 323.48 885.954 325.846 897.274 328.134C905.223 329.741 913.443 331.402 921.183 334.172C928.543 336.806 935.573 340.483 942.372 344.04C950.282 348.178 958.472 352.459 967.102 355.038C982.931 359.766 1003.02 357.022 1010.79 342.632C1020.1 325.387 1036.59 313.098 1058.49 307.095C1078.04 301.739 1100.88 302.042 1121.15 307.931C1151.41 316.721 1178.11 334.693 1203.94 352.073C1212.09 357.554 1220.51 363.221 1228.9 368.504C1266.45 392.139 1307.4 410.411 1350.62 422.812C1381.26 431.606 1412.53 437.288 1443.94 439.809C1443.94 439.809 1443.86 441.901 1443.94 441.824Z" fill="#3C3E4A"/>
<path fill-rule="evenodd" clip-rule="evenodd" d="M514.984 373.905C511.653 373.905 508.33 374.105 505.039 374.514C490.17 376.362 473.78 388.258 456.323 409.871C451.907 415.339 446.843 422.669 446.881 430.876C446.919 438.737 451.68 445.842 455.823 451.154C476.186 477.257 507.995 494.944 540.914 498.469C551.258 499.572 565.21 499.013 572.947 490.046C579.426 482.538 580.391 470.626 575.818 454.637C575.401 453.179 574.965 451.711 574.527 450.237C571.258 439.235 567.878 427.858 571.178 416.874C571.593 415.492 572.117 414.115 572.623 412.783C573.9 409.427 575.105 406.257 574.741 402.963C574.165 397.739 569.611 393.667 566.236 391.058C551.964 380.03 533.374 373.905 514.984 373.905ZM548.669 500.904C546.152 500.904 543.496 500.755 540.701 500.456C507.255 496.877 474.935 478.905 454.246 452.384C449.907 446.822 444.922 439.351 444.881 430.886C444.839 422.048 450.143 414.341 454.768 408.616C472.561 386.584 489.391 374.444 504.792 372.53C526.77 369.797 550.194 376.134 567.458 389.476C571.122 392.307 576.07 396.764 576.73 402.745C577.146 406.517 575.797 410.064 574.493 413.494C573.999 414.792 573.488 416.135 573.093 417.451C569.965 427.861 573.259 438.947 576.444 449.667C576.884 451.148 577.322 452.622 577.741 454.086C582.511 470.765 581.408 483.302 574.462 491.352C568.98 497.705 560.323 500.904 548.669 500.904Z" fill="#3C3E4A"/>
<path fill-rule="evenodd" clip-rule="evenodd" d="M503.283 406.539C501.725 406.539 500.191 406.704 498.699 407.043C489.452 409.141 482.677 415.984 480.577 425.348C478.376 435.158 481.941 445.406 489.661 451.451C496.622 456.903 506.009 458.915 514.163 456.703C522.574 454.421 529.594 447.428 531.633 439.302C533.549 431.666 530.646 422.97 523.87 416.038C517.92 409.953 510.366 406.539 503.283 406.539ZM507.413 459.584C500.71 459.584 493.871 457.288 488.428 453.026C480.105 446.506 476.257 435.47 478.626 424.909C480.9 414.774 488.238 407.366 498.257 405.092C507.194 403.063 517.558 406.723 525.299 414.64C532.566 422.073 535.658 431.474 533.572 439.788C531.329 448.732 523.916 456.128 514.687 458.633C512.332 459.273 509.882 459.584 507.413 459.584Z" fill="#3C3E4A"/>
<path fill-rule="evenodd" clip-rule="evenodd" d="M288.058 239.357C286.616 239.357 285.159 239.537 283.698 239.922C279.836 240.939 276.007 243.408 271.993 247.47C262.529 257.045 256.942 269.422 251.538 281.392C248.405 288.334 245.165 295.511 241.194 302.117C232.327 316.858 216.399 326.27 200.997 335.373C196.061 338.289 191.399 341.044 186.991 343.955C181.464 347.602 175.748 351.375 171.715 356.706C168.296 361.224 165.541 368.359 168.062 374.831C172.005 384.955 185.008 386.79 196.48 388.409C197.849 388.602 199.197 388.792 200.509 388.994C216.11 391.379 231.226 398.437 243.072 408.866C246.691 412.051 250.076 415.595 253.349 419.021C258.386 424.293 263.595 429.745 269.67 433.873C278.924 440.16 293.202 443.519 302.687 436.042C308.823 431.203 311.337 423.241 313.767 415.538C314.37 413.629 314.993 411.656 315.661 409.764C320.475 396.134 328.933 384.094 340.122 374.944C344.426 371.424 349.138 368.341 353.694 365.359C358.019 362.528 362.492 359.601 366.565 356.328C373.459 350.79 381.893 341.79 382.926 330.366C383.542 323.559 381.102 317.157 376.56 313.655C373.222 311.083 368.868 310.049 364.659 309.049L364.122 308.921C352.747 306.211 339.951 302.21 331.301 293.093C325.166 286.625 321.708 278.267 318.365 270.184C316.75 266.283 315.081 262.248 313.136 258.495C308.059 248.701 298.437 239.357 288.058 239.357ZM289.483 442.305C282.041 442.305 274.349 439.469 268.546 435.528C262.295 431.281 257.012 425.75 251.903 420.403C248.659 417.007 245.305 413.495 241.751 410.368C230.188 400.188 215.434 393.299 200.206 390.97C198.902 390.771 197.561 390.581 196.201 390.389C184.185 388.694 170.566 386.773 166.199 375.558C163.84 369.5 165.342 361.813 170.12 355.499C174.361 349.894 180.486 345.851 185.89 342.285C190.339 339.348 195.022 336.58 199.98 333.651C215.167 324.675 230.873 315.394 239.48 301.086C243.391 294.581 246.606 287.458 249.716 280.569C255.191 268.439 260.853 255.894 270.57 246.064C274.843 241.741 278.972 239.098 283.189 237.988C289.246 236.393 295.673 237.818 301.78 242.108C306.967 245.751 311.63 251.244 314.911 257.575C316.896 261.404 318.582 265.479 320.213 269.421C323.487 277.334 326.871 285.517 332.752 291.716C341.042 300.454 353.496 304.334 364.586 306.976L365.121 307.103C369.536 308.152 374.102 309.237 377.781 312.071C382.86 315.986 385.595 323.065 384.918 330.545C383.822 342.669 375.014 352.106 367.819 357.886C363.668 361.221 359.155 364.174 354.79 367.032C350.277 369.985 345.61 373.039 341.388 376.493C330.482 385.411 322.239 397.145 317.547 410.43C316.89 412.288 316.273 414.246 315.675 416.141C313.153 424.131 310.545 432.393 303.926 437.612C299.712 440.935 294.658 442.305 289.483 442.305Z" fill="#3C3E4A"/>
<path fill-rule="evenodd" clip-rule="evenodd" d="M286.134 299.238C277.209 299.238 268.446 307.639 264.256 313.292C262.787 315.271 261.349 317.391 259.958 319.441C254.972 326.788 249.815 334.384 241.706 338.208C239.848 339.085 237.878 339.731 235.973 340.356C233.067 341.311 230.322 342.213 227.948 343.857C221.81 348.103 219.422 357.251 222.391 365.136C224.95 371.932 231.158 377.868 239.423 381.421C246.733 384.563 254.641 385.718 263.477 386.806C269.666 387.569 275.608 388.004 280.246 385.012C283.245 383.079 285.175 380.027 287.219 376.794C288.731 374.402 290.296 371.928 292.352 369.896C296.464 365.836 302.02 363.99 307.394 362.203C308.772 361.745 310.197 361.271 311.558 360.771C318.412 358.253 327.541 353.416 332.105 344.662C335.9 337.381 335.556 326.513 328.411 320.927C325.23 318.438 321.311 317.358 317.163 316.214C315.383 315.724 313.543 315.216 311.777 314.589C307.367 313.024 303.874 309.897 300.497 306.874C297.158 303.885 294.004 301.061 290.182 299.854C288.84 299.43 287.484 299.238 286.134 299.238ZM270.678 389.353C268.22 389.353 265.705 389.095 263.233 388.79C254.242 387.685 246.186 386.504 238.633 383.258C229.871 379.491 223.269 373.143 220.519 365.841C217.236 357.124 219.94 346.966 226.809 342.212C229.422 340.404 232.435 339.415 235.349 338.458C237.196 337.85 239.106 337.223 240.854 336.399C248.469 332.808 253.468 325.442 258.303 318.318C259.705 316.251 261.156 314.115 262.649 312.1C269.032 303.49 280.232 294.621 290.784 297.947C295.016 299.284 298.481 302.385 301.831 305.384C305.064 308.278 308.408 311.271 312.446 312.706C314.144 313.309 315.949 313.806 317.695 314.287C321.85 315.432 326.147 316.617 329.644 319.351C337.609 325.58 338.052 337.582 333.878 345.585C329.019 354.908 319.433 360.009 312.248 362.648C310.857 363.159 309.417 363.637 308.025 364.1C302.869 365.814 297.537 367.586 293.757 371.32C291.863 373.19 290.362 375.565 288.909 377.863C286.84 381.137 284.7 384.521 281.33 386.694C278.17 388.731 274.492 389.353 270.678 389.353Z" fill="#3C3E4A"/>
<path fill-rule="evenodd" clip-rule="evenodd" d="M317.674 70.425C314.475 76.3413 313.312 83.9004 317.923 87.45C320.321 89.2968 323.648 89.4958 326.892 89.4308C344.112 89.0988 361.355 83.4585 375.441 73.5476C379.19 70.91 383.819 67.2304 386.365 62.143C388.443 57.9915 389.095 51.8792 385.867 47.5857C384.497 45.7639 382.576 44.4121 380.726 43.1852C374.388 38.9817 366.23 37.9628 357.126 40.2356C339.757 44.5741 323.836 59.0273 317.674 70.425ZM325.956 91.4405C322.66 91.4405 319.33 91.0576 316.702 89.0348C311.16 84.7673 312.313 76.1353 315.914 69.4741C323.4 55.6288 340.909 42.2244 356.642 38.2948C366.304 35.8831 375.014 36.997 381.831 41.5184C383.74 42.7843 385.906 44.3081 387.466 46.3848C390.756 50.7613 391.026 57.2985 388.153 63.0379C385.408 68.5242 380.533 72.4108 376.592 75.1834C362.183 85.3212 344.545 91.0906 326.931 91.4305C326.607 91.4365 326.282 91.4405 325.956 91.4405Z" fill="#3C3E4A"/>
<path fill-rule="evenodd" clip-rule="evenodd" d="M-70.9159 -81.9906C-72.5459 -81.9906 -74.1689 -81.8746 -75.7798 -81.6077C-82.7927 -80.4438 -90.2575 -75.3324 -90.9565 -67.8143C-91.5734 -61.1771 -86.5946 -55.2938 -81.3867 -52.4071C-72.9219 -47.7167 -63.2281 -47.6287 -53.8554 -47.5437C-50.9514 -47.5177 -47.9475 -47.4907 -45.0266 -47.3267C-34.1008 -46.7148 -22.9921 -45.33 -12.2483 -43.9921C-6.97447 -43.3342 -1.52059 -42.6553 3.82128 -42.0784C17.479 -40.6055 31.5296 -38.3468 40.0814 -28.54C45.7383 -22.0537 47.7982 -13.5677 49.7912 -5.36068C50.9742 -0.489258 52.1971 4.54814 54.1591 9.10261C59.8899 22.411 72.8576 32.3648 87.1963 34.4606C94.0911 35.4685 101.143 34.7766 107.776 33.9817C137.257 30.4521 166.432 23.7399 194.492 14.034C202.333 11.3214 210.49 8.18771 216.499 2.3744C221.931 -2.87898 225.976 -11.7449 222.767 -19.708C220.612 -25.0554 215.14 -29.4718 207.755 -31.8246C198.442 -34.7902 188.347 -34.3773 178.584 -33.9753C170.55 -33.6474 162.242 -33.3054 154.232 -34.7962C139.241 -37.5869 126.433 -46.4818 114.048 -55.0848C103.079 -62.7039 91.7352 -70.582 78.9475 -74.1546C63.7968 -78.3881 47.6382 -76.3403 32.0146 -74.3615C26.1867 -73.6236 20.1619 -72.8607 14.257 -72.4288C-5.77849 -70.9689 -27.807 -73.1397 -53.0934 -79.075L-54.4513 -79.3959C-59.8692 -80.6768 -65.4301 -81.9906 -70.9159 -81.9906ZM94.5951 36.9623C92.0392 36.9623 89.4692 36.8133 86.9073 36.4384C71.8967 34.2446 58.321 23.8249 52.3221 9.89349C50.2932 5.18405 49.0502 0.0626602 47.8482 -4.88876C45.8223 -13.2288 43.9093 -21.1068 38.5744 -27.2261C30.4906 -36.496 17.421 -38.6008 3.60629 -40.0906C-1.75059 -40.6685 -7.21346 -41.3494 -12.4963 -42.0074C-23.2061 -43.3422 -34.2808 -44.722 -45.1385 -45.33C-48.0135 -45.4909 -50.9924 -45.518 -53.8733 -45.544C-63.4961 -45.6309 -73.4469 -45.7209 -82.3557 -50.6583C-88.1335 -53.86 -93.6484 -60.4632 -92.9474 -67.9993C-92.1544 -76.5253 -83.8756 -82.2916 -76.1068 -83.5794C-68.677 -84.8133 -61.2112 -83.0485 -53.9913 -81.3417L-52.6364 -81.0227C-27.549 -75.1334 -5.7135 -72.9747 14.111 -74.4235C19.9629 -74.8505 25.9618 -75.6104 31.7626 -76.3453C47.5852 -78.3491 63.9468 -80.4228 79.4855 -76.0803C92.5992 -72.4178 104.083 -64.4407 115.189 -56.7276C127.4 -48.2446 140.029 -39.4737 154.599 -36.762C162.385 -35.3131 170.579 -35.6491 178.502 -35.9741C188.437 -36.382 198.713 -36.804 208.362 -33.7293C213.036 -32.2405 221.366 -28.536 224.622 -20.4559C228.179 -11.629 223.804 -1.90811 217.89 3.81222C211.587 9.90849 203.199 13.1381 195.146 15.9238C166.951 25.6766 137.636 32.4199 108.014 35.9674C103.677 36.4874 99.159 36.9623 94.5951 36.9623Z" fill="#3C3E4A"/>
<path fill-rule="evenodd" clip-rule="evenodd" d="M88.1543 2.65392C88.6813 4.44371 89.4372 5.90654 90.4022 6.99941C92.8932 9.82008 100.684 16.3243 119.183 15.9164C134.152 15.5764 148.272 10.222 158.902 5.59659C162.485 4.03678 166.192 2.42396 168.958 -0.334713C171.189 -2.55945 173.326 -6.50798 172.005 -10.3115C170.109 -15.7759 162.725 -17.0437 156.453 -16.4078C154.594 -16.2198 152.69 -15.9479 150.85 -15.6849C145.684 -14.948 140.343 -14.1871 135.074 -15.094C131.05 -15.7879 127.254 -17.2487 123.582 -18.6605C116.739 -21.2942 110.275 -23.7809 102.933 -21.2662C93.5612 -18.0536 85.1864 -7.43989 88.1543 2.65392ZM117.507 17.9351C99.39 17.9351 91.4972 11.2619 88.9033 8.32326C87.7423 7.00842 86.8453 5.29063 86.2353 3.21788C82.9504 -7.9578 92.0562 -19.6524 102.284 -23.157C110.313 -25.9107 117.423 -23.173 124.301 -20.5273C127.882 -19.1495 131.584 -17.7257 135.413 -17.0647C140.374 -16.2108 145.556 -16.9497 150.567 -17.6647C152.428 -17.9306 154.352 -18.2046 156.251 -18.3976C163.287 -19.1065 171.616 -17.5327 173.895 -10.9665C175.231 -7.11591 173.848 -2.38748 170.37 1.08111C167.336 4.10675 163.279 5.87255 159.7 7.43036C148.903 12.1288 134.546 17.5672 119.228 17.9151C118.644 17.9291 118.07 17.9351 117.507 17.9351Z" fill="#3C3E4A"/>
<path fill-rule="evenodd" clip-rule="evenodd" d="M1443.94 410.915C1413.94 410.676 1384.09 408.785 1356.83 396.564C1334.96 386.758 1316.18 370.773 1298.01 355.313C1276.42 336.941 1254.1 317.941 1226.86 309.837C1221.8 308.33 1216.5 307.19 1211.38 306.087C1202.66 304.208 1193.63 302.265 1185.37 298.437C1176.53 294.343 1168.65 288.143 1161.02 282.148C1150.07 273.531 1139.72 265.392 1126.69 262.824C1113.12 260.143 1099.05 264.303 1086.63 267.971L987.501 297.243C972.132 301.782 953.002 307.429 935.363 302.256C914.663 296.185 902.053 277.751 889.864 259.924C883.404 250.466 876.714 240.686 868.854 232.734C846.375 209.981 815.596 202.363 783.002 194.297C761.939 189.084 740.159 183.694 720.975 173.818C708.386 167.338 696.678 158.78 685.356 150.503C668.823 138.419 651.727 125.923 631.963 120.099C629.013 119.23 625.936 118.489 622.961 117.774C615.251 115.918 607.28 114 600.475 109.632C594.557 105.835 590.028 99.4387 588.655 92.9405C587.652 88.188 588.398 83.7456 590.812 80.094C593.757 75.6385 598.781 73.0378 602.83 71.269C629.793 59.4924 663.602 60.5403 706.184 74.4726C715.236 77.4343 724.363 80.7709 733.189 83.9975C756.801 92.6295 781.217 101.555 806.476 104.11C809.716 104.437 813.036 104.667 816.236 104.888C824.565 105.464 833.165 106.059 841.345 108.416C858.415 113.335 872.374 123.642 885.874 133.611C901.433 145.096 917.523 156.973 938.423 160.57L941.183 161.043C953.412 163.121 963.972 164.915 975.082 171.992C976.932 173.174 978.722 174.332 980.452 175.455C997.561 186.547 1008.87 193.876 1031.28 189.398C1041.61 187.333 1052.11 184.434 1062.26 181.629C1087.05 174.777 1112.69 167.692 1138.23 172.143C1143.61 173.079 1148.94 174.533 1154.1 175.939C1160.39 177.651 1166.89 179.422 1173.42 180.237C1191.56 182.5 1209.78 177.505 1227.4 172.674C1234.16 170.82 1241.15 168.903 1248.06 167.416C1289.95 158.39 1329.65 166.989 1354.24 190.419C1361.85 197.673 1368.09 206.358 1374.14 214.757C1380.88 224.137 1387.86 233.837 1396.7 241.422C1410.2 253.02 1427.74 259.388 1443.94 264.698C1443.94 264.698 1444.05 266.909 1443.94 266.801C1427.39 261.392 1409.36 254.932 1395.39 242.939C1386.38 235.198 1379.33 225.4 1372.51 215.925C1366.53 207.6 1360.33 198.992 1352.86 191.868C1328.75 168.894 1289.72 160.483 1248.48 169.37C1241.63 170.847 1234.66 172.756 1227.93 174.603C1210.12 179.486 1191.71 184.536 1173.17 182.222C1166.5 181.389 1159.93 179.599 1153.58 177.868C1148.46 176.475 1143.17 175.033 1137.89 174.113C1112.79 169.738 1087.37 176.764 1062.79 183.557C1052.61 186.37 1042.08 189.281 1031.67 191.359C1008.45 195.997 996.251 188.084 979.362 177.133C977.632 176.013 975.852 174.858 974.002 173.678C963.242 166.819 952.862 165.056 940.853 163.015L938.083 162.541C916.713 158.863 900.434 146.843 884.694 135.219C871.334 125.356 857.515 115.157 840.785 110.337C832.815 108.04 824.315 107.452 816.106 106.883C812.876 106.661 809.546 106.43 806.276 106.1C780.766 103.52 756.23 94.5503 732.503 85.8753C723.692 82.6547 714.582 79.3241 705.563 76.3734C663.466 62.6011 630.125 61.5302 603.631 73.1018C599.599 74.8636 595.12 77.2013 592.48 81.1959C590.368 84.3915 589.722 88.31 590.612 92.5275C591.878 98.5208 596.071 104.43 601.555 107.95C608.076 112.134 615.881 114.013 623.428 115.83C626.428 116.552 629.53 117.299 632.527 118.181C652.627 124.103 669.865 136.703 686.537 148.889C697.796 157.12 709.441 165.631 721.891 172.04C740.866 181.809 762.532 187.17 783.483 192.356C814.906 200.133 847.405 208.175 870.274 231.328C878.264 239.409 885.004 249.264 891.514 258.795C904.063 277.14 915.903 294.467 935.923 300.337C953.002 305.348 971.812 299.79 986.931 295.326L1086.06 266.053C1098.7 262.321 1113.03 258.095 1127.08 260.862C1140.57 263.522 1151.6 272.192 1162.26 280.576C1169.8 286.502 1177.59 292.628 1186.21 296.623C1194.27 300.357 1203.18 302.277 1211.8 304.132C1216.96 305.243 1222.29 306.391 1227.43 307.92C1255.07 316.144 1277.55 335.283 1299.3 353.791C1317.37 369.16 1336.04 385.05 1357.65 394.74C1384.55 406.801 1413.94 408.678 1443.94 408.916V410.915Z" fill="#3C3E4A"/>
<path fill-rule="evenodd" clip-rule="evenodd" d="M986.892 252.393C993.992 252.393 1001.06 253.754 1007.9 255.071C1015.21 256.477 1022.79 257.933 1030.25 257.68C1044.31 257.205 1056.75 250.065 1061.94 239.49C1064.91 233.449 1065.07 225.9 1062.38 219.299C1060.1 213.702 1056.07 209.64 1051.05 207.863C1041.39 204.444 1031.99 209.107 1022.04 214.044C1014.76 217.657 1007.23 221.394 999.311 221.967C982.222 223.208 971.232 214.011 960.622 205.122C953.163 198.873 945.453 192.411 935.553 189.426C931.473 188.196 927.183 187.415 923.023 186.661C918.333 185.809 913.483 184.928 908.854 183.392C901.364 180.905 894.544 176.738 887.944 172.71C885.114 170.982 882.194 169.196 879.264 167.574C864.225 159.241 847.205 154.25 830.046 153.137C825.306 152.83 819.846 152.803 815.216 154.924C811.266 156.731 807.206 160.99 807.606 166.074C808.026 171.374 813.056 175.241 817.206 177.553C826.866 182.941 838.045 185.46 848.855 187.897C861.165 190.671 873.894 193.539 884.544 200.644C894.184 207.075 901.724 216.67 909.014 225.949C919.703 239.557 929.793 252.41 945.713 255.475C953.613 257 961.462 255.684 969.762 254.295C975.092 253.403 980.602 252.482 986.072 252.399C986.342 252.395 986.622 252.393 986.892 252.393ZM1028.51 259.708C1021.42 259.708 1014.36 258.351 1007.52 257.035C1000.51 255.685 993.292 254.304 986.102 254.399C980.782 254.479 975.352 255.388 970.092 256.267C961.982 257.625 953.583 259.027 945.333 257.44C928.683 254.233 917.883 240.482 907.434 227.183C900.244 218.028 892.804 208.562 883.434 202.308C873.094 195.408 860.555 192.581 848.425 189.848C837.465 187.38 826.146 184.827 816.226 179.3C809.666 175.643 805.996 171.124 805.616 166.231C805.206 161.054 808.816 155.657 814.376 153.106C819.416 150.799 825.196 150.819 830.176 151.141C847.625 152.273 864.935 157.351 880.234 165.826C883.194 167.467 886.144 169.265 888.984 171.003C895.484 174.974 902.214 179.079 909.484 181.493C913.973 182.986 918.763 183.853 923.383 184.693C927.593 185.457 931.943 186.248 936.133 187.511C946.423 190.616 954.293 197.211 961.902 203.589C972.692 212.62 982.872 221.145 999.161 219.973C1006.69 219.428 1014.05 215.781 1021.15 212.253C1031.04 207.349 1041.26 202.277 1051.72 205.977C1057.28 207.949 1061.73 212.412 1064.23 218.544C1067.13 225.667 1066.95 233.826 1063.73 240.371C1058.22 251.599 1045.1 259.179 1030.32 259.677C1029.72 259.698 1029.11 259.708 1028.51 259.708Z" fill="#3C3E4A"/>
<path fill-rule="evenodd" clip-rule="evenodd" d="M668.398 87.4799C665.413 87.4799 662.693 87.7699 660.433 88.4158C656.328 89.5897 654.123 91.8124 653.881 95.022C653.614 98.5546 656.037 102.173 661.083 105.776C672.889 114.208 686.779 119.337 698.235 119.498C703.729 119.568 708.108 117.435 709.998 113.773C711.952 109.985 711.056 105.063 707.543 100.267C703.061 94.1501 682.707 87.4799 668.398 87.4799ZM698.519 121.5C698.416 121.5 698.312 121.499 698.208 121.498C686.359 121.331 672.047 116.063 659.921 107.404C654.266 103.366 651.563 99.1496 651.886 94.8711C652.194 90.7985 654.96 87.9009 659.884 86.493C673.853 82.5015 703.303 91.0995 709.156 99.0856C713.135 104.516 714.089 110.203 711.775 114.69C709.568 118.967 704.627 121.5 698.519 121.5Z" fill="#3C3E4A"/>
<path fill-rule="evenodd" clip-rule="evenodd" d="M43.7883 263.48C46.0243 266.228 50.2682 267.185 56.413 266.334C70.7847 264.334 84.3943 258.506 92.8211 250.745C96.85 247.035 98.57 242.456 97.422 238.499C96.2351 234.406 92.2002 231.447 86.3503 230.384C77.3355 228.749 50.9322 242.456 44.0013 254.178C41.8284 257.852 41.7564 260.983 43.7883 263.48ZM52.4031 268.634C47.7532 268.634 44.3433 267.331 42.2364 264.741C39.6584 261.573 39.6734 257.567 42.2804 253.16C49.6742 240.654 76.9675 226.634 86.7083 228.417C93.3321 229.622 97.937 233.094 99.343 237.942C100.706 242.643 98.775 247.979 94.1761 252.216C85.4613 260.242 71.4477 266.26 56.688 268.314C55.16 268.527 53.7311 268.634 52.4031 268.634Z" fill="#3C3E4A"/>
<path fill-rule="evenodd" clip-rule="evenodd" d="M685.823 259.85C675.705 259.85 665.771 262.86 662.491 271.436C661.148 274.947 661.124 279.323 662.42 284.092C666.918 300.645 683.281 313.301 711.055 321.71C713.04 322.31 715.046 322.904 717.063 323.5C736.511 329.25 756.622 335.194 768.693 351.168C772.901 356.737 775.773 363.192 778.549 369.433C780.978 374.891 783.489 380.535 786.867 385.496C798.834 403.071 818.965 410.211 840.285 417.772C858.365 424.183 877.054 430.814 890.244 444.423C896.464 450.847 901.183 458.587 905.733 466.073C908.933 471.319 912.233 476.742 916.013 481.643C929.493 499.092 951.412 521.278 979.302 527.887C990.661 530.578 1003.54 531.463 1019.83 530.67C1043.22 529.532 1066.85 525.489 1089.69 521.58C1122.33 515.995 1156.08 510.218 1189.59 512.856C1193.36 513.152 1197.19 513.56 1200.89 513.953C1211.87 515.122 1223.23 516.329 1234.23 514.761C1248.15 512.777 1264.76 499.273 1270.51 485.274L1271.44 485.653L1270.51 485.274C1272.37 480.738 1273.14 475.421 1272.79 469.471C1271.94 455.085 1264.65 441.213 1253.28 432.364C1246.45 427.048 1238.28 423.525 1230.37 420.118C1224.3 417.499 1218.01 414.791 1212.29 411.267C1204.41 406.418 1197.56 400.017 1190.94 393.827C1187.18 390.313 1183.29 386.68 1179.27 383.383C1141.87 352.731 1084.54 348.375 1042.94 373.028C1040.27 374.615 1037.59 376.342 1035.01 378.013C1029.24 381.745 1023.27 385.603 1016.75 388.225C1001.84 394.227 983.321 393.84 964.612 387.137C947.902 381.148 932.953 371.221 918.493 361.62L918.393 361.551C917.683 361.369 916.543 361.095 915.643 360.877C912.713 360.174 911.683 359.927 911.383 359.569C900.393 355.215 888.244 353.954 876.494 352.732C863.494 351.382 850.065 349.986 838.025 344.436C827.475 339.568 818.575 331.769 809.966 324.227L808.146 322.628C752.352 273.876 717.557 263.76 693.478 260.393C690.987 260.046 688.398 259.85 685.823 259.85ZM1008.92 532.949C997.431 532.949 987.691 531.931 978.842 529.832C950.382 523.09 928.113 500.569 914.433 482.864C910.583 477.877 907.253 472.405 904.033 467.113C899.534 459.722 894.874 452.078 888.804 445.816C875.944 432.541 857.475 425.991 839.615 419.658C818.935 412.322 797.548 404.737 785.214 386.621C781.735 381.511 779.186 375.785 776.723 370.247C773.992 364.107 771.167 357.759 767.097 352.374C755.423 336.925 735.633 331.075 716.496 325.418C714.475 324.82 712.464 324.226 710.475 323.624C681.597 314.88 665.246 302.122 660.49 284.618C659.061 279.362 659.106 274.687 660.624 270.722C665.157 258.867 680.711 256.589 693.754 258.413C740.119 264.894 779.944 295.332 809.466 321.124L811.286 322.722C819.785 330.171 828.575 337.875 838.865 342.62C850.595 348.031 863.864 349.41 876.694 350.743C888.924 352.014 901.574 353.329 913.083 358.1L913.633 358.332C914.343 358.509 915.313 358.742 916.103 358.933C919.753 359.811 920.453 359.978 920.483 360.539C934.563 369.889 949.142 379.469 965.282 385.254C983.532 391.791 1001.55 392.189 1016.01 386.37C1022.34 383.82 1028.23 380.014 1033.92 376.334C1036.52 374.653 1039.21 372.913 1041.92 371.308C1084.22 346.242 1142.51 350.67 1180.53 381.836C1184.61 385.174 1188.52 388.83 1192.3 392.366C1198.85 398.489 1205.63 404.822 1213.34 409.564C1218.94 413.013 1225.15 415.691 1231.16 418.282C1239.18 421.739 1247.48 425.313 1254.51 430.786C1266.32 439.983 1273.91 454.402 1274.79 469.354C1275.15 475.606 1274.34 481.218 1272.36 486.033C1266.27 500.858 1249.3 514.634 1234.52 516.74C1223.26 518.342 1211.78 517.122 1200.68 515.941C1196.99 515.55 1193.18 515.145 1189.44 514.851C1156.16 512.233 1122.55 517.986 1090.03 523.551C1067.12 527.471 1043.44 531.524 1019.92 532.668C1016.08 532.854 1012.42 532.949 1008.92 532.949Z" fill="#3C3E4A"/>
<path fill-rule="evenodd" clip-rule="evenodd" d="M856.635 375.987C851.505 375.987 846.935 377.472 844.195 381.65C840.745 386.912 842.595 394.2 846.205 398.679C850.265 403.719 856.505 406.675 862.065 408.9C874.604 413.92 887.784 417.094 901.234 418.334C903.114 418.508 905.024 418.652 906.934 418.796C918.063 419.633 929.573 420.498 938.353 427.377C946.963 434.114 950.453 444.702 953.833 454.943C956.133 461.879 958.492 469.053 962.432 475.025C971.902 489.409 989.512 495.482 1002.62 498.043C1029.82 503.356 1058.02 499.446 1085.29 495.663C1108.44 492.452 1132.38 489.129 1155.87 491.36C1157.25 491.491 1158.64 491.641 1160.02 491.79C1167.25 492.57 1174.72 493.375 1181.66 491.46C1189.43 489.313 1197.11 481.931 1195.95 473.749C1195.53 470.82 1194.09 468.117 1192.69 465.504C1183.29 447.912 1171.58 426.018 1154.97 409.597C1137.09 391.93 1115.2 382.825 1094.91 384.608C1078.66 386.038 1063.47 394.136 1048.79 401.967C1031.41 411.236 1013.44 420.818 993.442 419.552C978.392 418.599 963.422 412.754 948.943 407.103C944.703 405.448 940.693 403.884 936.683 402.437L872.544 379.303C867.565 377.508 861.815 375.987 856.635 375.987ZM1031.48 502.636C1021.68 502.636 1011.91 501.896 1002.23 500.006C988.752 497.371 970.612 491.09 960.762 476.123C956.682 469.932 954.273 462.63 951.933 455.57C948.493 445.154 945.253 435.316 937.123 428.951C928.813 422.448 917.623 421.605 906.794 420.79C904.864 420.646 902.944 420.501 901.044 420.326C887.404 419.068 874.044 415.849 861.325 410.757C855.515 408.435 848.995 405.333 844.645 399.932C839.035 392.962 839.615 385.001 842.525 380.554C848.745 371.057 862.655 373.609 873.225 377.422L937.363 400.556C941.403 402.011 945.413 403.579 949.673 405.241C964.002 410.836 978.832 416.622 993.572 417.556C1012.99 418.792 1030.71 409.339 1047.85 400.202C1062.71 392.277 1078.08 384.081 1094.74 382.617C1115.62 380.784 1138.08 390.095 1156.37 408.175C1173.21 424.808 1184.99 446.851 1194.45 464.561C1195.86 467.199 1197.46 470.19 1197.93 473.468C1199.26 482.85 1190.97 490.963 1182.19 493.387C1174.88 495.403 1167.22 494.576 1159.81 493.777C1158.43 493.629 1157.06 493.481 1155.68 493.35C1132.42 491.146 1108.6 494.447 1085.56 497.645C1067.77 500.113 1049.58 502.636 1031.48 502.636Z" fill="#3C3E4A"/>
<path fill-rule="evenodd" clip-rule="evenodd" d="M1091.57 416.964C1086.09 416.964 1080.7 417.854 1075.72 419.742L1036.39 434.645C1032.34 436.177 1027.76 437.915 1024.57 441.147C1018.89 446.914 1018.63 457.42 1024 464.568C1028.79 470.959 1037.6 474.757 1046.95 474.519C1054.57 474.314 1062.73 471.699 1071.9 466.525C1072.43 466.227 1072.96 465.923 1073.48 465.619C1076.62 463.819 1079.86 461.955 1083.48 461.091C1091.53 459.169 1099.45 462.425 1107.1 465.574C1108 465.943 1108.89 466.31 1109.77 466.665C1120.59 471.009 1128.86 471.106 1134.33 466.947C1142.16 460.991 1141.1 448.137 1135.62 439.643C1126.55 425.6 1108.63 416.964 1091.57 416.964ZM1046.08 476.53C1036.42 476.531 1027.41 472.456 1022.4 465.769C1016.46 457.861 1016.8 446.187 1023.15 439.743C1026.64 436.2 1031.44 434.38 1035.68 432.774L1075.01 417.87C1096.33 409.8 1124.85 419.271 1137.3 438.56C1143.26 447.801 1144.28 461.892 1135.54 468.539C1129.47 473.154 1120.55 473.147 1109.03 468.521C1108.14 468.163 1107.24 467.794 1106.34 467.424C1098.98 464.395 1091.37 461.263 1083.94 463.036C1080.6 463.834 1077.49 465.622 1074.48 467.354C1073.95 467.66 1073.42 467.966 1072.88 468.267C1063.42 473.605 1054.95 476.304 1047 476.519C1046.69 476.526 1046.39 476.53 1046.08 476.53Z" fill="#3C3E4A"/>
<path fill-rule="evenodd" clip-rule="evenodd" d="M596.56 144.469C588.881 144.469 580.591 147.821 577.642 155.103C574.527 162.794 578.602 171.6 583.455 177.275C593.007 188.449 608.946 195.26 627.186 195.964C643.75 196.596 660.141 192.653 675.996 188.833C679.332 188.031 682.723 187.032 684.33 184.462C686.105 181.623 686.454 179.178 685.397 176.986C681.483 168.871 659.385 166.354 652.124 165.527C651.484 165.454 650.928 165.391 650.471 165.335C640.652 164.134 632.317 159.383 624.256 154.79C616.913 150.604 609.321 146.276 600.77 144.818C599.414 144.586 597.998 144.469 596.56 144.469ZM630.785 198.032C629.561 198.032 628.337 198.009 627.11 197.961C608.314 197.237 591.848 190.17 581.934 178.575C576.7 172.452 572.337 162.874 575.788 154.353C579.682 144.74 591.737 141.251 601.106 142.846C610.005 144.364 617.753 148.78 625.247 153.052C633.135 157.548 641.294 162.198 650.713 163.351C651.167 163.405 651.717 163.468 652.35 163.54C682.805 167.009 685.997 173.625 687.198 176.117C688.558 178.938 688.164 182.102 686.025 185.523C684.02 188.731 680.203 189.877 676.464 190.778C661.643 194.349 646.353 198.032 630.785 198.032Z" fill="#3C3E4A"/>
<path fill-rule="evenodd" clip-rule="evenodd" d="M1443.94 34.4483C1440.24 33.8474 1436.49 33.4704 1432.79 33.0994C1427.2 32.5365 1421.42 31.9546 1415.86 30.6197C1403.76 27.7121 1392.88 21.2888 1382.35 15.0766C1375.9 11.268 1369.23 7.33047 1362.35 4.24883C1333.74 -8.57465 1300.63 -7.2628 1271.42 -6.10294C1239.59 -4.84009 1206.67 -3.53426 1175.58 5.68365C1169.91 7.36147 1164.11 9.34624 1158.5 11.264C1138.06 18.2532 1116.93 25.4774 1095.95 20.5369C1084.45 17.8303 1074.17 11.631 1064.23 5.63667C1055.77 0.533279 1047.02 -4.74309 1037.6 -7.80373C1030.8 -10.0135 1023.51 -11.1104 1016.45 -12.1712C1006.82 -13.621 996.861 -15.1199 987.931 -19.4743C978.262 -24.1888 970.592 -34.7426 969.272 -45.1383C968.392 -52.1035 970.562 -58.2088 975.392 -62.3273C980.121 -66.3628 986.271 -67.6127 992.221 -68.8215C995.571 -69.5005 999.031 -70.2044 1002.17 -71.3972C1014.07 -75.9127 1021.03 -86.6414 1028.39 -98.0021C1033.27 -105.535 1038.32 -113.325 1044.98 -119.234C1059.13 -131.788 1078.47 -134.395 1097.16 -136.917C1105.52 -138.044 1114.16 -139.21 1122.23 -141.248C1134.04 -144.228 1142.11 -148.907 1146.91 -155.553C1154.37 -165.882 1153.13 -178.931 1151.83 -192.747C1150.59 -205.771 1149.32 -219.24 1156.06 -230.199C1165.31 -245.241 1186.62 -248.359 1201.87 -242.684C1218.9 -236.351 1230.92 -221.821 1239.5 -209.87C1241.99 -206.389 1244.45 -202.781 1246.82 -199.291C1253.67 -189.195 1260.77 -178.755 1269.72 -170.293C1281.61 -159.047 1296.94 -151.049 1311.76 -143.316C1333.56 -131.939 1356.11 -120.175 1366.94 -98.0231C1369.54 -92.7207 1371.32 -87.0194 1373.04 -81.505C1374.55 -76.6356 1376.12 -71.6002 1378.24 -66.9097C1390.35 -40.0879 1418.92 -26.0566 1443.94 -18.7514C1443.94 -18.7514 1443.94 -16.8227 1443.94 -16.6717C1418.35 -24.0568 1388.92 -38.3911 1376.42 -66.0869C1374.25 -70.8883 1372.66 -75.9827 1371.13 -80.9101C1369.43 -86.3524 1367.67 -91.9798 1365.15 -97.1442C1354.6 -118.708 1333.34 -129.798 1310.84 -141.543C1295.89 -149.339 1280.44 -157.403 1268.34 -168.84C1259.24 -177.451 1252.08 -187.982 1245.17 -198.166C1242.8 -201.646 1240.35 -205.244 1237.87 -208.705C1229.46 -220.425 1217.69 -234.665 1201.17 -240.81C1186.67 -246.204 1166.47 -243.319 1157.76 -229.152C1151.37 -218.762 1152.62 -205.632 1153.82 -192.935C1155.1 -179.358 1156.43 -165.32 1148.53 -154.382C1143.44 -147.339 1135 -142.409 1122.72 -139.309C1114.54 -137.243 1105.84 -136.07 1097.43 -134.935C1078.18 -132.339 1060 -129.887 1046.31 -117.737C1039.85 -112.01 1034.88 -104.335 1030.07 -96.9142C1022.85 -85.7835 1015.39 -74.2749 1002.88 -69.5275C999.591 -68.2766 996.051 -67.5567 992.621 -66.8608C986.651 -65.6499 981.021 -64.5061 976.682 -60.8055C971.182 -56.107 970.692 -49.8288 971.252 -45.3893C972.472 -35.7804 979.861 -25.6366 988.811 -21.2712C997.461 -17.0517 1007.27 -15.5758 1016.75 -14.148C1023.88 -13.0761 1031.26 -11.9662 1038.22 -9.70551C1047.85 -6.57487 1056.71 -1.2375 1065.26 3.92389C1075.07 9.83919 1085.22 15.9555 1096.4 18.5902C1116.83 23.4006 1137.69 16.2694 1157.85 9.37222C1163.48 7.44745 1169.3 5.45668 1175.01 3.76588C1206.34 -5.52202 1239.39 -6.83284 1271.34 -8.1017C1300.78 -9.26656 1334.13 -10.5904 1363.17 2.42407C1370.15 5.55069 1376.87 9.51825 1383.37 13.3538C1393.77 19.4911 1404.52 25.8373 1416.33 28.675C1421.75 29.9788 1427.46 30.5537 1432.99 31.1087C1436.61 31.4726 1440.29 31.8426 1443.94 32.4215V34.4483Z" fill="#3C3E4A"/>
<mask id="mask0_8_10410" style="mask-type:alpha" maskUnits="userSpaceOnUse" x="-196" y="137" width="764" height="629">
<path d="M-196 137.484H567.58V765.94H-196V137.484Z" fill="white"/>
</mask>
<g mask="url(#mask0_8_10410)">
<path fill-rule="evenodd" clip-rule="evenodd" d="M528.035 765.91C541.485 740.393 548.813 713.566 539.447 687.169C538.72 685.12 537.882 683.07 537.071 681.08C534.934 675.841 532.724 670.431 532.476 664.817C531.924 652.277 540.397 642.615 549.369 632.385C557.11 623.559 565.114 614.433 567.11 603.11C570.271 585.185 556.994 568.627 542.434 560.168C532.293 554.275 520.882 550.87 509.847 547.577C504.584 546.006 499.141 544.382 493.918 542.511C474.247 535.465 456.104 524.385 438.56 513.667L352.655 461.197C344.132 455.991 336.815 451.046 333.612 443.237C328.293 430.267 336.035 415.285 356.622 398.707L400.154 363.655C414.815 351.848 429.482 337.399 427.1 319.743C425.575 308.433 416.532 297.881 402.292 290.791C397.324 288.317 392.065 286.299 386.979 284.344C380.205 281.743 373.2 279.054 366.921 275.288C345.989 262.739 333.617 237.079 336.836 212.863L337.774 204.174C342.439 185.59 333.452 163.833 315.902 151.241C301.19 140.685 280.725 135.956 258.266 137.919C252.629 138.412 246.323 139.515 242.285 143.952C239.463 147.055 238.332 151.223 237.599 154.89C234.656 169.611 235.958 185.024 237.217 199.929C238.775 218.372 240.386 237.443 233.681 254.664C223.577 280.614 199.31 294.35 173.616 308.892C156.534 318.561 138.871 328.558 125.581 342.522C117.133 351.399 112.527 360.31 111.888 369.008C110.2 391.97 135.044 408.269 159.277 411.947C165.8 412.937 172.583 413.459 179.143 413.964C195.399 415.215 212.208 416.507 225.943 425.081C250.728 440.557 256.104 471.848 261.304 502.107C262.5 509.069 263.737 516.271 265.19 523.057C267.033 531.672 269.88 541.305 277.023 547.436C284.879 554.181 295.598 555.101 306.814 555.505C357.575 557.33 415.108 559.397 451.148 595.934C458.44 603.326 467.195 615.014 467.491 628.718C467.578 632.734 466.926 636.819 466.295 640.77C465.776 644.021 465.239 647.384 465.098 650.75C464.512 664.799 470.689 677.76 476.663 690.299C481.236 699.898 485.964 709.817 487.667 720.195C490.304 736.274 485.78 751.942 477.957 765.94C477.957 765.94 480.097 765.94 480.238 765.94C487.926 751.942 492.309 736.144 489.64 719.875C487.892 709.207 483.102 699.158 478.468 689.439C472.33 676.551 466.531 664.386 467.096 650.834C467.232 647.584 467.76 644.279 468.27 641.085C468.915 637.047 469.582 632.871 469.49 628.675C469.18 614.314 460.119 602.18 452.572 594.53C415.974 557.429 358.019 555.345 306.886 553.506C296.038 553.115 285.691 552.241 278.326 545.919C271.634 540.175 268.918 530.927 267.145 522.639C265.701 515.892 264.468 508.711 263.275 501.768C258.001 471.074 252.547 439.336 227.002 423.386C212.851 414.551 195.793 413.24 179.297 411.97C172.773 411.468 166.027 410.949 159.577 409.97C136.231 406.427 112.282 390.917 113.882 369.155C114.486 360.93 118.91 352.433 127.03 343.901C140.115 330.153 157.647 320.229 174.601 310.632C200.613 295.91 225.183 282.003 235.545 255.388C242.417 237.736 240.787 218.431 239.21 199.761C237.963 184.994 236.673 169.725 239.56 155.281C240.239 151.884 241.27 148.04 243.765 145.296C247.338 141.37 253.188 140.371 258.44 139.911C280.421 137.987 300.412 142.588 314.736 152.866C331.656 165.005 340.325 185.932 335.818 203.752L334.851 212.624C331.532 237.582 344.297 264.055 365.892 277.003C372.321 280.858 379.408 283.58 386.262 286.212C391.304 288.148 396.518 290.149 401.401 292.582C415.038 299.371 423.682 309.369 425.118 320.01C427.367 336.681 413.126 350.64 398.9 362.097L355.367 397.151C334.01 414.35 326.068 430.11 331.762 443.995C335.474 453.047 344.802 458.743 351.613 462.904L437.517 515.374C455.148 526.143 473.379 537.279 493.243 544.393C498.517 546.283 503.986 547.915 509.275 549.494C520.198 552.753 531.493 556.123 541.429 561.897C555.388 570.007 568.134 585.788 565.141 602.762C563.242 613.535 555.425 622.448 547.865 631.067C539.028 641.143 529.89 651.563 530.479 664.905C530.741 670.861 533.018 676.441 535.219 681.84C536.022 683.8 536.851 685.83 537.563 687.839C546.807 713.886 539.302 740.543 525.755 765.94C525.755 765.94 528.191 765.91 528.035 765.91Z" fill="#3C3E4A"/>
</g>
<path fill-rule="evenodd" clip-rule="evenodd" d="M575.763 765.94C583.071 752.941 588.391 739.813 586.297 726.124C584.79 716.275 579.518 706.877 574.42 697.788C566.731 684.079 559.468 671.131 565.637 658.137C568.82 651.436 575.11 646.8 581.193 642.316C583.35 640.726 585.582 639.084 587.656 637.362C599.99 627.136 608.323 611.383 610.518 594.139C612.714 576.895 608.594 559.557 599.22 546.572C591.593 535.874 561.762 526.713 530.178 517.015C512.325 511.532 493.862 505.861 479.815 499.923C457.766 490.602 432.499 478.542 412.266 459.763C408.056 455.856 403.678 451.08 403.132 445.287C402.592 439.563 405.912 434.068 409.581 428.981C419.882 414.704 431.877 401.647 445.234 390.171C447.212 388.472 449.228 386.798 451.246 385.123C459.656 378.142 468.352 370.922 474.41 361.616C485.335 344.832 486.766 321.634 478.147 301.076C468.664 278.457 450.222 263.845 436.423 255.571C431.609 252.684 426.492 250.018 421.544 247.44C408.481 240.635 394.975 233.596 386.087 221.939C376.522 209.392 373.149 192.695 369.887 176.547C365.546 155.057 361.447 134.759 344.01 123.336C336.353 118.319 327.292 116.186 319.4 114.581C302.792 111.2 285.783 109.182 268.846 108.584C237.654 107.472 216.488 114.183 204.123 129.074C190.252 145.78 191.127 168.291 191.973 190.06C192.65 207.488 193.35 225.509 186.755 240.996C177.946 261.679 157.944 274.264 138.601 286.433C131.29 291.034 123.73 295.791 116.855 300.928C87.0331 323.211 66.1726 357.006 59.6207 393.651C58.5688 399.535 57.8828 405.776 59.9727 411.533C62.6317 418.862 69.1645 423.711 74.5594 427.118C98.7628 442.4 127.821 447.049 155.922 451.548C161.238 452.399 166.736 453.278 172.086 454.214C198.411 458.818 213.652 468.498 217.385 482.986C221.249 497.981 211.744 510.751 201.682 524.27C193.621 535.103 185.285 546.305 183.706 559.205C180.65 584.165 205.171 605.197 229.989 609.18C254.676 613.139 278.693 605.753 305.281 596.436L305.706 596.287C329.665 587.891 354.435 579.216 379.466 582.065C403.673 584.829 429.615 602.855 431.126 628.236C431.359 632.136 431.014 636.151 430.68 640.034C430.256 644.977 429.817 650.088 430.536 655.124C431.569 662.348 434.9 668.941 438.121 675.33C439.419 677.9 440.76 680.55 441.923 683.199C453.729 710.066 448.753 743.942 429.99 765.94C429.99 765.94 432.696 765.94 432.57 765.94C450.939 742.942 455.635 709.436 443.754 682.399C442.569 679.7 441.216 677.02 439.906 674.43C436.758 668.191 433.502 661.741 432.516 654.84C431.829 650.031 432.258 645.036 432.673 640.205C433.012 636.252 433.363 632.164 433.123 628.117C431.549 601.686 404.721 582.936 379.693 580.079C354.209 577.168 329.216 585.929 305.045 594.399L304.619 594.549C278.293 603.773 254.53 611.094 230.306 607.206C206.406 603.37 182.776 583.263 185.691 559.447C187.205 547.073 195.381 536.088 203.286 525.465C213.643 511.551 223.425 498.407 219.322 482.487C215.376 467.17 199.599 456.995 172.431 452.244C167.066 451.307 161.561 450.425 156.237 449.572C128.335 445.107 99.4838 440.489 75.6264 425.427C70.5025 422.191 64.3046 417.61 61.8527 410.852C59.9237 405.537 60.5867 399.613 61.5897 394.002C68.0525 357.852 88.632 324.512 118.052 302.529C124.863 297.44 132.389 292.705 139.666 288.127C159.269 275.793 179.541 263.039 188.595 241.778C195.366 225.879 194.658 207.631 193.972 189.983C193.101 167.604 192.28 146.468 205.662 130.352C217.604 115.968 238.248 109.499 268.775 110.582C285.602 111.177 302.501 113.182 319.001 116.539C326.711 118.109 335.554 120.187 342.913 125.008C359.652 135.975 363.671 155.875 367.927 176.942C371.233 193.312 374.653 210.239 384.496 223.152C393.655 235.164 407.363 242.306 420.62 249.214C425.542 251.778 430.632 254.43 435.394 257.286C448.938 265.407 467.029 279.729 476.303 301.848C484.669 321.805 483.302 344.289 472.734 360.524C466.841 369.578 458.263 376.699 449.968 383.585C447.942 385.268 445.917 386.948 443.931 388.656C430.454 400.233 418.351 413.407 407.959 427.811C404.061 433.214 400.538 439.093 401.141 445.475C401.751 451.937 406.419 457.065 410.906 461.229C431.365 480.217 456.827 492.375 479.036 501.765C493.177 507.743 511.69 513.429 529.591 518.926C559.466 528.101 590.358 537.587 597.596 547.737C616.549 573.993 611.309 615.153 586.38 635.823C584.349 637.507 582.141 639.133 580.007 640.707C573.724 645.337 567.229 650.125 563.83 657.28C557.218 671.201 564.727 684.589 572.675 698.768C577.686 707.696 582.869 716.935 584.32 726.424C586.376 739.863 580.874 752.941 573.469 765.94H575.763Z" fill="#3C3E4A"/>
<mask id="mask1_8_10410" style="mask-type:alpha" maskUnits="userSpaceOnUse" x="-196" y="-334" width="1640" height="1100">
<path d="M-196 -334H1443.94V765.984H-196V-334Z" fill="white"/>
</mask>
<g mask="url(#mask1_8_10410)">
<path fill-rule="evenodd" clip-rule="evenodd" d="M655.199 765.94C663.61 750.642 665.912 731.864 660.381 715.266C658.961 711.007 657.055 706.817 655.213 702.758C651.566 694.749 648.122 687.17 647.919 678.801C647.641 667.412 653.331 657.545 659.354 647.099C663.048 640.691 666.87 634.066 669.186 627.049C673.144 615.063 672.875 601.532 668.386 586.831C664.91 575.445 658.891 563.122 649.984 549.158C648.222 546.394 646.421 543.628 644.612 540.849C631.415 520.573 617.768 499.609 616.554 475.804C616.02 465.338 617.867 454.244 619.652 443.516C622.899 424.009 626.256 403.837 614.798 387.855C607.545 377.739 596.026 372.2 584.886 366.844C574.569 361.881 563.9 356.751 556.796 348.014C549.602 339.167 546.85 327.597 544.188 316.41C541.696 305.937 539.121 295.108 532.941 286.198C525.432 275.375 513.456 268.6 502.89 262.625L453.488 234.682C442.401 228.411 427.216 219.823 421.228 205.843C416.287 194.304 418.207 181.871 420.239 168.709C421.93 157.752 423.679 146.424 421.087 135.66C420.13 131.683 418.576 127.707 417.074 123.862C413.82 115.53 410.745 107.66 413.203 99.7561C414.796 94.6337 418.432 90.6692 422.281 86.4727C424.695 83.841 427.19 81.1193 429.146 78.0767C440.247 60.7987 431.139 37.1735 415.667 25.9478C402.126 16.122 383.234 12.2685 359.519 14.4932C296.038 20.4465 239.049 60.6337 193.257 92.9229C179.896 102.344 164.753 113.023 155.917 128.347C145.751 145.976 145.328 166.995 144.917 187.321C144.524 206.833 144.117 227.011 135.037 243.99C118.148 275.569 78.3334 285.728 37.8234 292.002C13.903 295.708 -0.990677 291.698 -6.44055 280.091C-8.7775 275.113 -8.90048 269.889 -6.80753 264.563C-1.97565 252.273 13.087 242.537 24.5177 237.934C45.6792 229.414 67.1197 218.005 65.7007 198.001C65.2427 191.561 62.1908 185.623 59.2399 179.881C55.644 172.883 52.2471 166.274 53.357 159.044C54.035 154.639 58.1539 150.213 62.5158 145.529C70.3056 137.162 80.0014 126.747 74.6215 111.205C71.8086 103.08 63.8678 96.4485 52.833 93.0119C47.3322 91.2991 41.5733 90.4212 36.0034 89.5723C32.3025 89.0084 28.4756 88.4265 24.7827 87.6046C-2.41963 81.5523 -23.1871 63.4324 -45.1746 44.2477C-60.6002 30.7883 -76.5519 16.8699 -94.8284 7.7C-114.932 -2.38781 -137.475 -6.53529 -159.278 -10.5448C-168.445 -12.2306 -177.923 -13.9754 -187.081 -16.1352C-189.979 -16.8191 -193.021 -17.592 -196.021 -18.4629V-16.3851C-193.021 -15.5682 -190.294 -14.8393 -187.539 -14.1894C-178.333 -12.0177 -168.83 -10.2688 -159.64 -8.57905C-137.975 -4.59352 -115.574 -0.473015 -95.7254 9.48681C-77.6758 18.5437 -61.8212 32.3771 -46.4896 45.7545C-25.2811 64.2593 -3.35062 83.3941 24.3487 89.5564C28.1066 90.3923 31.9675 90.9812 35.7025 91.5501C41.1983 92.387 46.8822 93.2529 52.237 94.9207C62.6588 98.1673 70.1286 104.342 72.7316 111.859C77.7184 126.265 68.8647 135.776 61.0518 144.167C56.475 149.083 52.1511 153.727 51.3801 158.74C50.1721 166.611 53.877 173.822 57.4609 180.795C60.3209 186.358 63.2768 192.111 63.7058 198.143C65.0338 216.866 44.2632 227.827 23.7707 236.079C11.972 240.83 -3.6046 250.949 -8.66748 263.833C-10.9714 269.689 -10.8314 275.446 -8.2515 280.94C-2.37863 293.447 13.224 297.834 38.1294 293.978C79.1514 287.626 119.498 277.286 136.8 244.933C146.107 227.53 146.519 207.11 146.917 187.362C147.322 167.288 147.741 146.53 157.65 129.346C166.265 114.403 181.218 103.86 194.411 94.5577C240.008 62.4045 296.755 22.3883 359.706 16.484C382.923 14.3082 401.357 18.0358 414.492 27.5657C429.225 38.2554 437.954 60.6688 427.463 76.9958C425.6 79.8935 423.163 82.5512 420.807 85.1209C416.978 89.2954 413.02 93.6119 411.293 99.1632C408.628 107.735 411.974 116.303 415.212 124.59C416.689 128.373 418.217 132.283 419.143 136.128C421.643 146.509 419.925 157.639 418.262 168.403C416.277 181.264 414.223 194.564 419.39 206.631C425.643 221.231 441.169 230.012 452.503 236.423L501.905 264.365C512.285 270.236 524.05 276.89 531.298 287.339C537.262 295.938 539.794 306.581 542.242 316.872C544.956 328.279 547.762 340.075 555.244 349.276C562.63 358.36 573.504 363.588 584.019 368.645C594.932 373.894 606.217 379.32 613.172 389.02C624.147 404.327 621.006 423.203 617.68 443.188C615.876 454.021 614.011 465.223 614.557 475.905C615.799 500.249 629.594 521.443 642.936 541.94C644.741 544.714 646.54 547.475 648.298 550.233C660.784 569.81 676.338 599.007 667.287 626.422C665.035 633.244 661.266 639.78 657.622 646.101C651.726 656.324 645.629 666.902 645.919 678.851C646.132 687.63 649.823 695.739 653.391 703.588C655.214 707.597 657.097 711.737 658.485 715.896C663.958 732.324 661.506 750.952 652.916 765.94C652.916 765.94 655.288 765.85 655.199 765.94Z" fill="#3C3E4A"/>
<path fill-rule="evenodd" clip-rule="evenodd" d="M-196.021 -121.964C-175.021 -114.933 -156.175 -104.898 -143.781 -86.233C-139.299 -79.4839 -135.994 -71.8708 -132.798 -64.5096C-130.156 -58.4213 -127.423 -52.1271 -124.02 -46.2858C-113.536 -28.2859 -92.6385 -23.2415 -73.5799 -20.6818C-62.0692 -19.135 -50.2825 -19.198 -38.8868 -19.258C-30.643 -19.302 -22.1152 -19.347 -13.7814 -18.78C-3.52562 -18.0831 9.56807 -15.1385 13.711 -5.06763C15.8339 0.0917358 15.0589 5.68109 14.239 11.5984C13.791 14.826 13.329 18.1636 13.374 21.4412C13.718 46.2423 41.5923 60.8566 65.3577 65.835C123.001 77.9146 184.795 67.0798 234.892 36.1135C244.885 29.9362 254.539 22.903 263.876 16.1019C276.186 7.13391 288.914 -2.13898 302.492 -9.48911C318.756 -18.2931 350.453 -31.2816 380.027 -19.3549C384.873 -17.4002 389.548 -14.7945 394.068 -12.2738C398.288 -9.92108 402.651 -7.48834 407.191 -5.55859C422.594 0.991638 439.762 1.68655 454.513 1.49457C483.796 1.12161 513.082 -8.8862 541.405 -18.5641C570.362 -28.4579 600.326 -38.6647 630.074 -38.5127C668.12 -38.2877 704.386 -23.5914 739.46 -9.38013C756.682 -2.40094 774.493 4.81619 792.381 10.2865C813.576 16.7658 839.295 15.4119 845.695 -2.87192C853.215 -24.3624 826.065 -41.4863 814.046 -47.8516L756.609 -78.267C744.577 -84.6382 732.136 -91.2275 722.929 -101.547C712.943 -112.741 709.091 -127.378 713.116 -138.837C713.761 -140.675 714.624 -142.52 715.458 -144.305C717.25 -148.139 719.101 -152.103 719.087 -156.469C719.039 -170.661 701.587 -176.564 685.272 -177.356L551.606 -183.851C523.704 -185.206 490.167 -189.988 478.389 -215.143C466.842 -239.805 483.602 -268.003 499.493 -289.812C509.689 -303.804 519.964 -318.646 528.035 -333.958C528.108 -334.03 525.755 -333.933 525.755 -333.933C517.819 -319.06 507.809 -304.62 497.877 -290.989C481.662 -268.735 464.586 -239.906 476.577 -214.296C488.808 -188.173 523.047 -183.236 551.509 -181.853L685.175 -175.359C690.495 -175.101 717.031 -172.976 717.087 -156.462C717.1 -152.544 715.422 -148.954 713.646 -145.151C712.791 -143.322 711.908 -141.431 711.229 -139.499C706.966 -127.363 710.974 -111.944 721.437 -100.215C730.883 -89.6276 744.053 -82.6535 755.673 -76.5002L813.116 -46.0848C824.675 -39.9615 850.815 -23.5575 843.805 -3.53281C837.845 13.5052 813.276 14.581 792.966 8.37378C775.162 2.93042 757.393 -4.26974 740.211 -11.2329C704.962 -25.5162 668.516 -40.2845 630.086 -40.5125C599.982 -40.6434 569.872 -30.4037 540.758 -20.4558C512.584 -10.829 483.451 -0.874146 454.488 -0.505188C439.941 -0.323212 423.035 -0.99411 407.972 -7.39835C403.532 -9.28714 399.216 -11.6939 395.042 -14.0206C390.468 -16.5713 385.738 -19.209 380.775 -21.2097C350.445 -33.4423 318.113 -20.2178 301.54 -11.2479C287.845 -3.83279 275.061 5.4791 262.699 14.485C253.392 21.2652 243.769 28.2754 233.841 34.4127C184.176 65.1111 122.915 75.8528 65.7677 63.8782C42.7253 59.0508 15.7019 45.0334 15.3739 21.4142C15.3309 18.2876 15.7829 15.027 16.2199 11.8734C17.0409 5.95306 17.8899 -0.168243 15.5609 -5.82855C11.973 -14.5526 1.87325 -19.7209 -13.6464 -20.7748C-22.0532 -21.3467 -30.615 -21.3008 -38.8968 -21.2578C-50.2275 -21.1988 -61.9412 -21.1357 -73.3129 -22.6635C-91.8925 -25.1593 -112.241 -30.0367 -122.292 -47.2917C-125.636 -53.031 -128.344 -59.2712 -130.964 -65.3055C-134.194 -72.7466 -137.535 -80.4427 -142.115 -87.3399C-154.821 -106.473 -174.022 -116.855 -196.021 -124.006V-121.964Z" fill="#3C3E4A"/>
<path fill-rule="evenodd" clip-rule="evenodd" d="M-196.021 408.925C-190.717 408.96 -185.422 408.947 -180.153 408.933C-177.485 408.927 -174.804 408.921 -172.115 408.921C-154.518 408.921 -136.553 409.19 -119.179 411.493C-109.508 412.775 -99.7861 414.726 -90.3854 416.614C-77.6777 419.164 -64.538 421.8 -51.4363 422.795C-17.4921 425.372 2.09642 415.026 12.5512 405.894C28.5738 391.901 36.3126 363.766 21.8 345.768C12.9262 334.764 -1.92749 329.956 -13.8622 326.092L-192.543 268.256C-193.693 267.884 -194.853 267.508 -196.021 267.128C-196.107 267.128 -196.023 265.024 -196.023 265.024C-194.646 265.473 -193.28 265.916 -191.927 266.353L-13.2462 324.19C-1.0585 328.134 14.1091 333.044 23.3559 344.513C38.5806 363.393 30.5737 392.809 13.8661 407.4C4.25337 415.796 -12.8372 425.196 -41.1425 425.196C-44.4685 425.196 -47.9454 425.066 -51.5873 424.789C-64.812 423.785 -78.0127 421.136 -90.7784 418.575C-100.148 416.694 -109.836 414.749 -119.442 413.475C-139.338 410.837 -160.087 410.888 -180.149 410.933C-185.419 410.946 -190.715 410.959 -196.021 410.923C-196.021 410.992 -196.021 408.925 -196.021 408.925Z" fill="#3C3E4A"/>
</g>
</svg>
